<svg xmlns="http://www.w3.org/2000/svg" width="32" height="32" viewBox="0 0 32 32">
  <rect width="32" height="32" rx="8" fill="#2563eb"/>
  <path d="M22 21c-1.5 0-2.9-0.2-4.3-0.7-0.4-0.1-0.9 0-1.2 0.3l-2.6 2.6c-3.3-1.7-6-4.4-7.7-7.7l2.6-2.6c0.3-0.3 0.4-0.8 0.3-1.2C8.6 10.4 8.4 9 8.4 7.5 8.4 6.7 7.7 6 6.9 6H4.5C3.7 6 3 6.7 3 7.5 3 18 11.5 26.5 22 26.5c0.8 0 1.5-0.7 1.5-1.5v-2.4C23.5 21.7 22.8 21 22 21z" fill="white"/>
  <path d="M24 6c0 3.3 2.7 6 6 6" stroke="white" stroke-width="2" stroke-linecap="round" fill="none"/>
  <path d="M24 10c0 1.1 0.9 2 2 2" stroke="white" stroke-width="2" stroke-linecap="round" fill="none"/>
</svg>
